<?xml version="1.0" encoding="utf-8"?>
<!-- Generator: Adobe Illustrator 22.0.1, SVG Export Plug-In . SVG Version: 6.00 Build 0)  -->
<svg version="1.1" id="Layer_1" xmlns="http://www.w3.org/2000/svg" xmlns:xlink="http://www.w3.org/1999/xlink" x="0px" y="0px"
	 viewBox="0 0 500 500" style="enable-background:new 0 0 500 500;" xml:space="preserve">
<style type="text/css">
	.st0{fill:#BECBFC;}
	.st1{opacity:0.38;}
	.st2{opacity:0.18;}
	.st3{opacity:0.8;clip-path:url(#SVGID_2_);}
	.st4{clip-path:url(#SVGID_4_);}
	.st5{fill:#4375FA;}
	.st6{fill:#819FDE;}
	.st7{opacity:0.8;clip-path:url(#SVGID_6_);}
	.st8{clip-path:url(#SVGID_8_);}
	.st9{opacity:0.8;clip-path:url(#SVGID_11_);}
	.st10{clip-path:url(#SVGID_13_);}
	.st11{opacity:0.8;clip-path:url(#SVGID_15_);}
	.st12{clip-path:url(#SVGID_17_);}
	.st13{opacity:0.8;fill:#E1E6F4;enable-background:new    ;}
	.st14{fill:#4375F1;}
	.st15{opacity:0.4;clip-path:url(#SVGID_19_);fill:#507CC7;enable-background:new    ;}
	.st16{opacity:0.5;clip-path:url(#SVGID_21_);fill:#4375F1;enable-background:new    ;}
	.st17{fill:#E2B187;}
	.st18{opacity:0.31;clip-path:url(#SVGID_23_);fill:#E2B187;enable-background:new    ;}
	.st19{fill:#EDBA8F;}
	.st20{opacity:0.28;clip-path:url(#SVGID_25_);fill:#AF703F;enable-background:new    ;}
	.st21{fill:#DC466F;}
	.st22{opacity:0.31;clip-path:url(#SVGID_27_);fill:#A172AE;enable-background:new    ;}
	.st23{opacity:0.28;clip-path:url(#SVGID_29_);fill:#AF703F;enable-background:new    ;}
	.st24{fill:#43464A;}
	.st25{fill:#C22373;}
	.st26{fill:#FFFFFF;}
	.st27{fill:#E79D90;}
	.st28{fill:#CBCFD6;}
	.st29{fill:#838BC0;}
	.st30{opacity:0.61;clip-path:url(#SVGID_31_);fill:#838BC0;enable-background:new    ;}
	.st31{clip-path:url(#SVGID_33_);fill:#F8F7FC;}
	.st32{clip-path:url(#SVGID_35_);}
	.st33{fill:#6DAAA3;}
	.st34{fill:#E7B59D;}
	.st35{opacity:0.45;clip-path:url(#SVGID_37_);fill:#E7B59D;enable-background:new    ;}
	.st36{fill:#2E5271;}
	.st37{fill:#61002F;}
	.st38{fill:#EFFDFF;}
	.st39{fill:#E19F9D;}
	.st40{fill:#9A6253;}
	.st41{fill:#9F71AC;}
	.st42{opacity:0.22;clip-path:url(#SVGID_39_);fill:#606060;enable-background:new    ;}
	.st43{fill:#E6B851;}
	.st44{opacity:0.22;clip-path:url(#SVGID_41_);fill:#E6B851;enable-background:new    ;}
	.st45{clip-path:url(#SVGID_43_);fill:#7CBFB9;}
	.st46{clip-path:url(#SVGID_45_);}
	.st47{opacity:0.45;clip-path:url(#SVGID_47_);fill:#E7B59D;enable-background:new    ;}
	.st48{fill:#F9CA45;}
	.st49{fill:#A072AE;}
	.st50{clip-path:url(#SVGID_50_);}
	.st51{opacity:0.52;clip-path:url(#SVGID_51_);fill:#A072AE;enable-background:new    ;}
	.st52{opacity:0.45;clip-path:url(#SVGID_53_);fill:#E7B59D;enable-background:new    ;}
	.st53{opacity:0.45;clip-path:url(#SVGID_55_);fill:#E7B59D;enable-background:new    ;}
	.st54{fill:#E2A29D;}
</style>
<g>
	<g>
		<g>
			<path class="st0" d="M253.5,395.1c-41,0-79.6-16-108.6-45s-45-67.6-45-108.6s16-79.6,45-108.6s67.6-45,108.6-45s79.6,16,108.6,45
				s45,67.6,45,108.6s-16,79.6-45,108.6C333.1,379.2,294.5,395.1,253.5,395.1z M253.5,88.4c-40.9,0-79.4,15.9-108.3,44.9
				s-44.9,67.4-44.9,108.3s15.9,79.4,44.9,108.3c28.9,28.9,67.4,44.9,108.3,44.9s79.4-15.9,108.3-44.9
				c28.9-28.9,44.9-67.4,44.9-108.3s-15.9-79.4-44.9-108.3C332.8,104.3,294.4,88.4,253.5,88.4z"/>
		</g>
		<g>
			<path class="st0" d="M253.5,413.4c-23.2,0-45.7-4.5-66.9-13.5c-20.5-8.7-38.8-21-54.6-36.8s-28.2-34.2-36.8-54.6
				c-9-21.2-13.5-43.7-13.5-66.9s4.5-45.7,13.5-66.9c8.7-20.5,21-38.8,36.8-54.6s34.2-28.2,54.6-36.8c21.2-9,43.7-13.5,66.9-13.5
				s45.7,4.5,66.9,13.5c20.5,8.7,38.8,21,54.6,36.8c15.8,15.8,28.2,34.2,36.8,54.6c9,21.2,13.5,43.7,13.5,66.9s-4.5,45.7-13.5,66.9
				c-8.7,20.5-21,38.8-36.8,54.6c-15.8,15.8-34.2,28.2-54.6,36.8C299.2,408.9,276.7,413.4,253.5,413.4z M253.5,70.2
				c-23.1,0-45.6,4.5-66.7,13.5c-20.4,8.6-38.7,21-54.5,36.7c-15.7,15.7-28.1,34.1-36.7,54.5c-8.9,21.1-13.5,43.6-13.5,66.7
				s4.5,45.6,13.5,66.7c8.6,20.4,21,38.7,36.7,54.5c15.7,15.7,34.1,28.1,54.5,36.7c21.1,8.9,43.6,13.5,66.7,13.5s45.6-4.5,66.7-13.5
				c20.4-8.6,38.7-21,54.5-36.7c15.7-15.7,28.1-34.1,36.7-54.5c8.9-21.1,13.5-43.6,13.5-66.7s-4.5-45.6-13.5-66.7
				c-8.6-20.4-21-38.7-36.7-54.5c-15.7-15.7-34.1-28.1-54.5-36.7C299.1,74.7,276.6,70.2,253.5,70.2z"/>
		</g>
		<g>
			<path class="st0" d="M253.5,363c-16.4,0-32.3-3.2-47.3-9.5c-14.5-6.1-27.4-14.9-38.6-26c-11.2-11.2-19.9-24.1-26-38.6
				c-6.3-15-9.5-30.9-9.5-47.3s3.2-32.3,9.5-47.3c6.1-14.5,14.9-27.4,26-38.6c11.2-11.2,24.1-19.9,38.6-26c15-6.3,30.9-9.5,47.3-9.5
				s32.3,3.2,47.3,9.5c14.5,6.1,27.4,14.9,38.6,26c11.2,11.2,19.9,24.1,26,38.6c6.3,15,9.5,30.9,9.5,47.3s-3.2,32.3-9.5,47.3
				c-6.1,14.5-14.9,27.4-26,38.6c-11.2,11.2-24.1,19.9-38.6,26C285.8,359.8,269.9,363,253.5,363z M253.5,120.5
				c-16.3,0-32.2,3.2-47.1,9.5c-14.4,6.1-27.4,14.8-38.5,26c-11.1,11.1-19.9,24.1-26,38.5c-6.3,14.9-9.5,30.8-9.5,47.1
				s3.2,32.2,9.5,47.1c6.1,14.4,14.8,27.4,26,38.5c11.1,11.1,24.1,19.9,38.5,26c14.9,6.3,30.8,9.5,47.1,9.5s32.2-3.2,47.1-9.5
				c14.4-6.1,27.4-14.8,38.5-26c11.1-11.1,19.9-24.1,26-38.5c6.3-14.9,9.5-30.8,9.5-47.1s-3.2-32.2-9.5-47.1
				c-6.1-14.4-14.8-27.4-26-38.5c-11.1-11.1-24.1-19.9-38.5-26C285.7,123.7,269.8,120.5,253.5,120.5z"/>
		</g>
		<g class="st1">
			<path class="st0" d="M253.5,435c-26.1,0-51.5-5.1-75.3-15.2c-23-9.7-43.7-23.7-61.5-41.5S85,339.8,75.2,316.8
				C65.1,293,60,267.7,60,241.6s5.1-51.5,15.2-75.3c9.7-23,23.7-43.7,41.5-61.5C134.4,87,155.1,73,178.2,63.3
				c23.9-10.1,49.2-15.2,75.3-15.2s51.5,5.1,75.3,15.2c23,9.7,43.7,23.7,61.5,41.5s31.7,38.5,41.5,61.5
				c10.1,23.9,15.2,49.2,15.2,75.3s-5.1,51.5-15.2,75.3c-9.7,23-23.7,43.7-41.5,61.5s-38.5,31.7-61.5,41.5
				C304.9,429.9,279.6,435,253.5,435z M253.5,48.6c-26,0-51.3,5.1-75.1,15.2c-23,9.7-43.6,23.6-61.3,41.3s-31.6,38.4-41.3,61.3
				c-10.1,23.8-15.2,49.1-15.2,75.1s5.1,51.3,15.2,75.1c9.7,23,23.6,43.6,41.3,61.3c17.7,17.7,38.4,31.6,61.3,41.3
				c23.8,10.1,49.1,15.2,75.1,15.2s51.3-5.1,75.1-15.2c23-9.7,43.6-23.6,61.3-41.3c17.7-17.7,31.6-38.4,41.3-61.3
				c10.1-23.8,15.2-49.1,15.2-75.1s-5.1-51.3-15.2-75.1c-9.7-23-23.6-43.6-41.3-61.3c-17.7-17.7-38.4-31.6-61.3-41.3
				C304.8,53.7,279.5,48.6,253.5,48.6z"/>
		</g>
		<g class="st2">
			<path class="st0" d="M253.5,458.1c-29.2,0-57.6-5.7-84.3-17c-25.8-10.9-48.9-26.5-68.8-46.4s-35.5-43-46.4-68.8
				c-11.3-26.7-17-55.1-17-84.3s5.7-57.6,17-84.3c10.9-25.8,26.5-48.9,46.4-68.8s43-35.5,68.8-46.4c26.7-11.3,55.1-17,84.3-17
				s57.6,5.7,84.3,17c25.8,10.9,48.9,26.5,68.8,46.4s35.5,43,46.4,68.8c11.3,26.7,17,55.1,17,84.3s-5.7,57.6-17,84.3
				c-10.9,25.8-26.5,48.9-46.4,68.8s-43,35.5-68.8,46.4C311.1,452.4,282.7,458.1,253.5,458.1z M253.5,25.6c-29.1,0-57.4,5.7-84,17
				c-25.7,10.9-48.8,26.4-68.6,46.3s-35.4,42.9-46.3,68.6c-11.3,26.6-17,54.9-17,84s5.7,57.4,17,84c10.9,25.7,26.4,48.8,46.3,68.6
				s42.9,35.4,68.6,46.3c26.6,11.3,54.9,17,84,17s57.4-5.7,84-17c25.7-10.9,48.8-26.4,68.6-46.3s35.4-42.9,46.3-68.6
				c11.3-26.6,17-54.9,17-84s-5.7-57.4-17-84c-10.9-25.7-26.4-48.8-46.3-68.6s-42.9-35.4-68.6-46.3
				C310.9,31.3,282.6,25.6,253.5,25.6z"/>
		</g>
		<g>
			<path class="st0" d="M253.5,441.5c-27,0-53.2-5.3-77.8-15.7c-23.8-10.1-45.2-24.5-63.5-42.8c-18.4-18.4-32.8-39.7-42.8-63.5
				c-10.4-24.6-15.7-50.8-15.7-77.8s5.3-53.2,15.7-77.8c10.1-23.8,24.5-45.2,42.8-63.5c18.4-18.4,39.7-32.8,63.5-42.8
				c24.6-10.4,50.8-15.7,77.8-15.7s53.2,5.3,77.8,15.7c23.8,10.1,45.2,24.5,63.5,42.8c18.4,18.4,32.8,39.7,42.8,63.5
				c10.4,24.6,15.7,50.8,15.7,77.8s-5.3,53.2-15.7,77.8c-10.1,23.8-24.5,45.2-42.8,63.5c-18.4,18.4-39.7,32.8-63.5,42.8
				C306.6,436.2,280.5,441.5,253.5,441.5z M253.5,42.2c-26.9,0-53,5.3-77.6,15.7c-23.7,10-45.1,24.4-63.4,42.7S79.8,140.2,69.8,164
				c-10.4,24.6-15.7,50.7-15.7,77.6s5.3,53,15.7,77.6c10,23.7,24.4,45.1,42.7,63.4s39.6,32.7,63.4,42.7
				c24.6,10.4,50.7,15.7,77.6,15.7s53-5.3,77.6-15.7c23.7-10,45.1-24.4,63.4-42.7c18.3-18.3,32.7-39.6,42.7-63.4
				c10.4-24.6,15.7-50.7,15.7-77.6s-5.3-53-15.7-77.6c-10-23.7-24.4-45.1-42.7-63.4c-18.3-18.3-39.6-32.7-63.4-42.7
				C306.5,47.5,280.4,42.2,253.5,42.2z"/>
		</g>
		<g>
			<g>
				<defs>
					<circle id="SVGID_1_" cx="240.8" cy="88" r="10.8"/>
				</defs>
				<clipPath id="SVGID_2_">
					<use xlink:href="#SVGID_1_"  style="overflow:visible;"/>
				</clipPath>
				<g class="st3">
					
						<ellipse transform="matrix(0.225 -0.9744 0.9744 0.225 100.8581 302.8465)" class="st0" cx="240.8" cy="88" rx="14.6" ry="14.6"/>
				</g>
			</g>
			<g>
				<defs>
					<circle id="SVGID_3_" cx="240.8" cy="88" r="10.8"/>
				</defs>
				<clipPath id="SVGID_4_">
					<use xlink:href="#SVGID_3_"  style="overflow:visible;"/>
				</clipPath>
				<g class="st4">
					<g>
						<path class="st5" d="M240.8,102.6C240.8,102.6,240.7,102.6,240.8,102.6c-0.1,0-0.1,0-0.1,0H240.8z"/>
					</g>
					<g>
						<path class="st6" d="M249.3,98.2c-0.1-2.8-1.8-4.6-3-4.4c-1.2,0.1-3.9-0.3-3.9-0.3c-0.2-0.4-0.2-1-0.2-1.6
							c1.3-0.8,2.2-2.6,2.4-4.8c0.3-0.1,0.6-0.4,0.7-0.9c0.2-0.6,0-1.1-0.3-1.2c-0.1,0-0.3,0-0.4,0.1c0-3-0.1-5.3-4-5.3
							c-3.7,0-3.9,2.2-4,5.2c-0.1-0.1-0.2-0.1-0.3-0.1c-0.3,0-0.6,0.6-0.5,1.1c0.1,0.6,0.4,1,0.7,1h0.1c0.2,2.1,1.1,3.9,2.3,4.8
							c0.1,0.6,0,1.2-0.2,1.7c0,0-2.7,0.4-3.9,0.3s-2.8,1.7-3,4.4c-0.1,2.6,7.8,4.2,8.6,4.4C241.5,102.4,249.4,100.8,249.3,98.2z"/>
					</g>
				</g>
			</g>
		</g>
		<g>
			<g>
				<defs>
					<circle id="SVGID_5_" cx="157" cy="384.2" r="16.5"/>
				</defs>
				<clipPath id="SVGID_6_">
					<use xlink:href="#SVGID_5_"  style="overflow:visible;"/>
				</clipPath>
				<g class="st7">
					<circle class="st0" cx="157" cy="384.2" r="22.3"/>
				</g>
			</g>
			<g>
				<defs>
					<circle id="SVGID_7_" cx="157" cy="384.2" r="16.5"/>
				</defs>
				<clipPath id="SVGID_8_">
					<use xlink:href="#SVGID_7_"  style="overflow:visible;"/>
				</clipPath>
				<g class="st8">
					<g>
						<path class="st5" d="M157,406.3C157,406.3,156.9,406.3,157,406.3c-0.2,0-0.2,0-0.2,0H157z"/>
					</g>
					<g>
						<path class="st6" d="M169.9,399.6c-0.2-4.2-2.7-7-4.5-6.8s-5.9-0.4-5.9-0.4c-0.3-0.7-0.3-1.5-0.3-2.4c1.9-1.2,3.3-4,3.7-7.3
							c0.4-0.1,0.9-0.6,1.1-1.3c0.3-0.9,0.1-1.7-0.4-1.8c-0.2-0.1-0.4,0-0.6,0.1c0-4.5-0.1-8-6-8c-5.6,0-6,3.4-6,7.9
							c-0.2-0.1-0.3-0.2-0.5-0.2c-0.5,0.1-0.9,0.8-0.7,1.7c0.1,0.9,0.6,1.6,1.1,1.5c0.1,0,0.1,0,0.2-0.1c0.3,3.2,1.6,5.9,3.5,7.2
							c0.1,0.9,0.1,1.8-0.2,2.5c0,0-4.1,0.6-5.9,0.4c-1.8-0.2-4.3,2.6-4.5,6.8c-0.2,4,11.8,6.4,13,6.7
							C158.1,406,170.1,403.6,169.9,399.6z"/>
					</g>
				</g>
			</g>
		</g>
		<g>
			<g>
				<defs>
					
						<ellipse id="SVGID_10_" transform="matrix(0.1608 -0.987 0.987 0.1608 154.0334 584.2414)" cx="420.6" cy="201.5" rx="12.2" ry="12.2"/>
				</defs>
				<clipPath id="SVGID_11_">
					<use xlink:href="#SVGID_10_"  style="overflow:visible;"/>
				</clipPath>
				<g class="st9">
					<ellipse class="st0" cx="420.6" cy="201.5" rx="16.5" ry="16.5"/>
				</g>
			</g>
			<g>
				<defs>
					
						<ellipse id="SVGID_12_" transform="matrix(0.1608 -0.987 0.987 0.1608 154.0334 584.2414)" cx="420.6" cy="201.5" rx="12.2" ry="12.2"/>
				</defs>
				<clipPath id="SVGID_13_">
					<use xlink:href="#SVGID_12_"  style="overflow:visible;"/>
				</clipPath>
				<g class="st10">
					<g>
						<path class="st5" d="M420.6,217.9L420.6,217.9c-0.1,0-0.1,0-0.1,0H420.6z"/>
					</g>
					<g>
						<path class="st6" d="M430.2,213c-0.1-3.1-2-5.2-3.4-5c-1.3,0.1-4.4-0.3-4.4-0.3c-0.2-0.5-0.3-1.1-0.2-1.8
							c1.4-0.9,2.5-3,2.7-5.4c0.3-0.1,0.7-0.4,0.8-1c0.2-0.6,0-1.3-0.3-1.4c-0.1,0-0.3,0-0.4,0.1c0-3.4-0.1-5.9-4.5-5.9
							c-4.1,0-4.5,2.5-4.5,5.9c-0.1-0.1-0.2-0.1-0.4-0.1c-0.4,0-0.6,0.6-0.6,1.3s0.5,1.2,0.8,1.1h0.1c0.2,2.4,1.2,4.4,2.6,5.4
							c0.1,0.7,0.1,1.3-0.2,1.9c0,0-3.1,0.4-4.4,0.3c-1.3-0.1-3.2,1.9-3.4,5c-0.1,3,8.8,4.8,9.7,4.9
							C421.4,217.7,430.4,216,430.2,213z"/>
					</g>
				</g>
			</g>
		</g>
		<g>
			<path class="st6" d="M98.6,303.7c0,2.9-2.3,5.2-5.2,5.2c-2.9,0-5.2-2.3-5.2-5.2c0-2.9,2.3-5.2,5.2-5.2
				C96.2,298.5,98.6,300.8,98.6,303.7z"/>
		</g>
		<g>
			<path class="st6" d="M430.5,254.3c0,2.9-2.3,5.2-5.2,5.2c-2.9,0-5.2-2.3-5.2-5.2c0-2.9,2.3-5.2,5.2-5.2S430.5,251.4,430.5,254.3z
				"/>
		</g>
		<g>
			<path class="st6" d="M303.5,78.8c-1.1,1.4-3.1,1.6-4.5,0.5s-1.6-3.1-0.5-4.5s3.1-1.6,4.5-0.5S304.7,77.4,303.5,78.8z"/>
		</g>
		<g>
			<path class="st6" d="M286.8,391.2c0.3,1.8-0.9,3.4-2.6,3.7c-1.8,0.3-3.4-0.9-3.7-2.6c-0.3-1.8,0.9-3.4,2.6-3.7
				S286.5,389.4,286.8,391.2z"/>
		</g>
		<g>
			<path class="st6" d="M229.3,438.8c0.3,1.8-0.9,3.4-2.6,3.7c-1.8,0.3-3.4-0.9-3.7-2.6c-0.3-1.8,0.9-3.4,2.6-3.7
				C227.4,435.8,229,437,229.3,438.8z"/>
		</g>
		<g>
			<path class="st6" d="M453,278.2c0.3,1.8-0.9,3.4-2.6,3.7c-1.8,0.3-3.4-0.9-3.7-2.6c-0.3-1.8,0.9-3.4,2.6-3.7
				S452.7,276.4,453,278.2z"/>
		</g>
		<g>
			<path class="st6" d="M126.7,87.5c0.3,1.8-0.9,3.4-2.6,3.7c-1.8,0.3-3.4-0.9-3.7-2.6c-0.3-1.8,0.9-3.4,2.6-3.7
				C124.7,84.6,126.4,85.8,126.7,87.5z"/>
		</g>
	</g>
	<g>
		<g>
			<defs>
				<circle id="SVGID_14_" cx="54.8" cy="211.9" r="8"/>
			</defs>
			<clipPath id="SVGID_15_">
				<use xlink:href="#SVGID_14_"  style="overflow:visible;"/>
			</clipPath>
			<g class="st11">
				<circle class="st0" cx="54.8" cy="211.9" r="10.8"/>
			</g>
		</g>
		<g>
			<defs>
				<circle id="SVGID_16_" cx="54.8" cy="211.9" r="8"/>
			</defs>
			<clipPath id="SVGID_17_">
				<use xlink:href="#SVGID_16_"  style="overflow:visible;"/>
			</clipPath>
			<g class="st12">
				<g>
					<path class="st5" d="M54.8,222.6L54.8,222.6C54.7,222.6,54.7,222.6,54.8,222.6L54.8,222.6z"/>
				</g>
				<g>
					<path class="st6" d="M61.1,219.4c-0.1-2-1.3-3.4-2.2-3.3c-0.9,0.1-2.9-0.2-2.9-0.2c-0.1-0.3-0.2-0.7-0.1-1.2
						c0.9-0.6,1.6-1.9,1.8-3.5c0.2,0,0.4-0.3,0.5-0.6c0.1-0.4,0-0.8-0.2-0.9c-0.1,0-0.2,0-0.3,0.1c0-2.2-0.1-3.9-2.9-3.9
						c-2.7,0-2.9,1.7-2.9,3.8c-0.1-0.1-0.2-0.1-0.2-0.1c-0.3,0-0.4,0.4-0.4,0.8c0.1,0.4,0.3,0.8,0.6,0.7H52c0.1,1.6,0.8,2.9,1.7,3.5
						c0,0.4,0,0.9-0.1,1.2c0,0-2,0.3-2.9,0.2s-2.1,1.2-2.2,3.3c-0.1,1.9,5.8,3.1,6.3,3.2C55.3,222.5,61.2,221.3,61.1,219.4z"/>
				</g>
			</g>
		</g>
	</g>
	<path class="st13" d="M395.6,245.8c0-77.3-62.7-140-140-140s-140,62.7-140,140c0,33.7,11.9,64.7,31.8,88.9h216.3
		C383.6,310.5,395.6,279.5,395.6,245.8z"/>
	<g>
		<g>
			<g>
				<path id="XMLID_12_" class="st14" d="M358.2,274.9c-8.1-19.8-17.3-23.5-17.3-23.5s0.3-0.4,0.8-1.1c3.8,1.6,7,4.6,9.1,8
					c0.2,0.3,0.6,0,0.4-0.2c-2.1-3.5-5.4-6.5-9.2-8.2c0.2-0.3,0.4-0.6,0.7-1c2.9,0.6,5.6,1.7,8.2,3c0.3,0.1,0.5-0.3,0.2-0.4
					c-2.6-1.3-5.4-2.4-8.2-3c5-8.2,15.8-31-15.8-33.6c2-2.1,4.7-3.5,7.4-4.5c0.3-0.1,0.2-0.6-0.1-0.5c-2.7,1-5.4,2.3-7.4,4.4
					c0.3-1.4,0.8-2.8,1.3-4.1c0.1-0.3-0.4-0.4-0.5-0.1c-0.6,1.4-1.1,2.9-1.4,4.5c-0.5-0.5-1.6-1.5-3.2-2.8c-0.9-1.3-1.8-2.5-2.9-3.5
					c-5.4-5.5-12.9-7.4-20.5-6.7c-0.1,0-0.2,0.1-0.2,0.2c-4.5,0-9.2,1.3-13.4,4.9c-5.3,4.4-6,11.2-4.7,17.7c0.1,1,0.3,2,0.4,2.7
					c0.8,4.9,2.9,9.5,5.5,13.6c-3.2,0.5-9,2.5-7.8,9.4c1.7,9.5,9.5,21.4,0.2,22.7c-9.2,1.2-13.7,22.4,19,42.2
					c32.7,19.8,63.9,1.1,51-14.6C349.7,300.3,366.3,294.7,358.2,274.9z M282.6,228.6c1.7,4.8,4.3,9.2,6.7,11.8c0,0-0.6,0-1.5,0.1
					C285.5,236.8,283.6,232.9,282.6,228.6z M320.1,208.8c0.6,0.6,1.1,1.3,1.7,1.9c-4.6-3.4-11.8-7.9-19.6-8.8
					C308.9,201.7,315.3,203.8,320.1,208.8z"/>
			</g>
			<g>
				<defs>
					<path id="SVGID_18_" d="M358.2,274.9c-8.1-19.8-17.3-23.5-17.3-23.5s0.3-0.4,0.8-1.1c3.8,1.6,7,4.6,9.1,8
						c0.2,0.3,0.6,0,0.4-0.2c-2.1-3.5-5.4-6.5-9.2-8.2c0.2-0.3,0.4-0.6,0.7-1c2.9,0.6,5.6,1.7,8.2,3c0.3,0.1,0.5-0.3,0.2-0.4
						c-2.6-1.3-5.4-2.4-8.2-3c5-8.2,15.8-31-15.8-33.6c2-2.1,4.7-3.5,7.4-4.5c0.3-0.1,0.2-0.6-0.1-0.5c-2.7,1-5.4,2.3-7.4,4.4
						c0.3-1.4,0.8-2.8,1.3-4.1c0.1-0.3-0.4-0.4-0.5-0.1c-0.6,1.4-1.1,2.9-1.4,4.5c-0.5-0.5-1.6-1.5-3.2-2.8
						c-0.9-1.3-1.8-2.5-2.9-3.5c-5.4-5.5-12.9-7.4-20.5-6.7c-0.1,0-0.2,0.1-0.2,0.2c-4.5,0-9.2,1.3-13.4,4.9
						c-5.3,4.4-6,11.2-4.7,17.7c0.1,1,0.3,2,0.4,2.7c0.8,4.9,2.9,9.5,5.5,13.6c-3.2,0.5-9,2.5-7.8,9.4c1.7,9.5,9.5,21.4,0.2,22.7
						c-9.2,1.2-13.7,22.4,19,42.2c32.7,19.8,63.9,1.1,51-14.6C349.7,300.3,366.3,294.7,358.2,274.9z M282.6,228.6
						c1.7,4.8,4.3,9.2,6.7,11.8c0,0-0.6,0-1.5,0.1C285.5,236.8,283.6,232.9,282.6,228.6z M320.1,208.8c0.6,0.6,1.1,1.3,1.7,1.9
						c-4.6-3.4-11.8-7.9-19.6-8.8C308.9,201.7,315.3,203.8,320.1,208.8z"/>
				</defs>
				<clipPath id="SVGID_19_">
					<use xlink:href="#SVGID_18_"  style="overflow:visible;"/>
				</clipPath>
				<path class="st15" d="M326.8,241.4c0,0-3.6,1.8-4.4,3.5c-0.8,1.6,0.9,11.9,0.9,11.9l20.8,16.5c0,0,5.6,42.9-8.2,54.4
					c-13.9,11.5-65-40.6-65-40.6l14.5-18.5l13.5-4.3l2.3-9.9c0,0-14.5-6.9-2.8-30.5s0,0,0,0L326.8,241.4"/>
			</g>
			<g>
				<defs>
					<path id="SVGID_20_" d="M358.2,274.9c-8.1-19.8-17.3-23.5-17.3-23.5s0.3-0.4,0.8-1.1c3.8,1.6,7,4.6,9.1,8
						c0.2,0.3,0.6,0,0.4-0.2c-2.1-3.5-5.4-6.5-9.2-8.2c0.2-0.3,0.4-0.6,0.7-1c2.9,0.6,5.6,1.7,8.2,3c0.3,0.1,0.5-0.3,0.2-0.4
						c-2.6-1.3-5.4-2.4-8.2-3c5-8.2,15.8-31-15.8-33.6c2-2.1,4.7-3.5,7.4-4.5c0.3-0.1,0.2-0.6-0.1-0.5c-2.7,1-5.4,2.3-7.4,4.4
						c0.3-1.4,0.8-2.8,1.3-4.1c0.1-0.3-0.4-0.4-0.5-0.1c-0.6,1.4-1.1,2.9-1.4,4.5c-0.5-0.5-1.6-1.5-3.2-2.8
						c-0.9-1.3-1.8-2.5-2.9-3.5c-5.4-5.5-12.9-7.4-20.5-6.7c-0.1,0-0.2,0.1-0.2,0.2c-4.5,0-9.2,1.3-13.4,4.9
						c-5.3,4.4-6,11.2-4.7,17.7c0.1,1,0.3,2,0.4,2.7c0.8,4.9,2.9,9.5,5.5,13.6c-3.2,0.5-9,2.5-7.8,9.4c1.7,9.5,9.5,21.4,0.2,22.7
						c-9.2,1.2-13.7,22.4,19,42.2c32.7,19.8,63.9,1.1,51-14.6C349.7,300.3,366.3,294.7,358.2,274.9z M282.6,228.6
						c1.7,4.8,4.3,9.2,6.7,11.8c0,0-0.6,0-1.5,0.1C285.5,236.8,283.6,232.9,282.6,228.6z M320.1,208.8c0.6,0.6,1.1,1.3,1.7,1.9
						c-4.6-3.4-11.8-7.9-19.6-8.8C308.9,201.7,315.3,203.8,320.1,208.8z"/>
				</defs>
				<clipPath id="SVGID_21_">
					<use xlink:href="#SVGID_20_"  style="overflow:visible;"/>
				</clipPath>
				<path class="st16" d="M300.5,220.1l-7.3-1.3c0,0,2.6,4,9.9,2.3C310.4,219.4,300.5,220.1,300.5,220.1"/>
			</g>
		</g>
		<g>
			<g>
				<path id="XMLID_11_" class="st17" d="M299.9,269.6l-3-5.3c0,0-8.6,0.9-11.7,4.5c-3.1,3.7-23,40-23,40s-8.6,4.1-15.7,7.6
					c1.8,1.1,3.8,3.1,4.9,7c6.2-2.2,14.3-5.7,17.3-7.8c0,0,19.2-14.7,21.3-24.6C292.1,281.1,299.9,269.6,299.9,269.6z"/>
			</g>
			<g>
				<defs>
					<path id="SVGID_22_" d="M299.9,269.6l-3-5.3c0,0-8.6,0.9-11.7,4.5c-3.1,3.7-23,40-23,40s-8.6,4.1-15.7,7.6
						c1.8,1.1,3.8,3.1,4.9,7c6.2-2.2,14.3-5.7,17.3-7.8c0,0,19.2-14.7,21.3-24.6C292.1,281.1,299.9,269.6,299.9,269.6z"/>
				</defs>
				<clipPath id="SVGID_23_">
					<use xlink:href="#SVGID_22_"  style="overflow:visible;"/>
				</clipPath>
				<path class="st18" d="M281.1,306.2c0,0-7.9-6.3,4.3-22.4c11.1-14.7,9.2,4.6,9.2,4.6l-8.1,17.7L281.1,306.2z"/>
			</g>
		</g>
		<path class="st17" d="M246.5,316.3c-8.8,4.4-18.9,9.3-19.5,9.6c-1,0.5-9.4-2.1-10.4-1.6s-6.8,3.7-8.9,4.2c-2.1,0.5,5.2,1.6,8.3,0
			s4.2,1.6,6.8,2.1s4.2,1,5.7,0c0,0,12-3.3,22.9-7.3C250.3,319.5,248.3,317.4,246.5,316.3z"/>
		<g>
			<g>
				<path id="XMLID_10_" class="st19" d="M305.3,251.3c0,0,1.6,5.7-5.2,12.5l-3.7,6.8l7.8,8.9l7.8,2.6l16.7-19.3l-7.3-4.7l-2.1-21.4
					L305.3,251.3z"/>
			</g>
			<g>
				<defs>
					<path id="SVGID_24_" d="M305.3,251.3c0,0,1.6,5.7-5.2,12.5l-3.7,6.8l7.8,8.9l7.8,2.6l16.7-19.3l-7.3-4.7l-2.1-21.4L305.3,251.3
						z"/>
				</defs>
				<clipPath id="SVGID_25_">
					<use xlink:href="#SVGID_24_"  style="overflow:visible;"/>
				</clipPath>
				<path class="st20" d="M304.2,255c0,0,14.5-0.7,14.8-9.6C319.4,236.6,302.5,251.4,304.2,255z"/>
			</g>
		</g>
		<g>
			<g>
				<path id="XMLID_9_" class="st21" d="M302.7,260.7c0,0,3.1,8.9,18.8-2.6c0,0,9.8,5.2,12.4,6.8c5.9,3.6,7.2,3,8.8,8.8l-13.9,46
					l4.7,18.3l-50.1,0.1l4.4-20.3c0.5-5.1-1.5-10-5.1-13.5c-7.2-6.9,2.4-18.4,10-39.3C293.3,263.2,302.7,260.7,302.7,260.7z"/>
			</g>
			<g>
				<defs>
					<path id="SVGID_26_" d="M302.7,260.7c0,0,3.1,8.9,18.8-2.6c0,0,9.8,5.2,12.4,6.8c5.9,3.6,7.2,3,8.8,8.8l-13.9,46l4.7,18.3
						l-50.1,0.1l4.4-20.3c0.5-5.1-1.5-10-5.1-13.5c-7.2-6.9,2.4-18.4,10-39.3C293.3,263.2,302.7,260.7,302.7,260.7z"/>
				</defs>
				<clipPath id="SVGID_27_">
					<use xlink:href="#SVGID_26_"  style="overflow:visible;"/>
				</clipPath>
				<path class="st22" d="M328.3,282.1c0,0-8.9,11.5-7.9,33.7c0,0-27.5,9.5-39.1,8.9c-11.7-0.6,1.5,8,1.5,8s33,2.5,48.2-8
					S328.3,282.1,328.3,282.1"/>
			</g>
		</g>
		<path class="st19" d="M283.8,325.7l-12.9-5.5l-5.4-4c-0.3-0.3-0.8-0.4-1.2-0.3l-6.2,0.6c-0.3,0-0.5,0.1-0.7,0.3
			c-1.1,0.8-4.6,3.6-3.7,3.6c1,0,3.1-0.5,4.7-1.6c0,0,4.7,0,5.2-0.5c0,0,2.1,2.1,3.1,2.6s0.5,0,0.5,0l-7,2.1
			c-0.4,0.1-0.7,0.3-0.9,0.6c-0.9,1.3-3.3,4.7-4.1,5.6c0,0,2.6,1,4.7-2.1s7.8-3.1,8.3-2.6c0,0-7.3,4.2-9.4,8.3c0,0,1,2.6,2.6,0.5
			c3.1-4,7.3-5.2,8.9-5.7l-3,3.4c-0.4,0.4-0.3,1.1,0.1,1.4l2.9,2.5c0,0,0.5-2.1-0.5-3.1l2.6-2.6c0,0,2.9,5.7,11.4,2.3V325.7z"/>
		<path class="st19" d="M306.5,321.6c-11.1,2.3-23.7,4.2-23.7,4.2l0.2,5.6c11.4,0.2,20.6-0.5,27.8-1.5
			C310.7,325.6,308.6,323.1,306.5,321.6z"/>
		<path class="st19" d="M340.5,268.9c-6.7-2.9-12.4,13.2-12.4,13.2c-7.3,15.1-5.5,35-5.5,35c-2.4,1.4-8.9,3.1-16,4.5
			c2.1,1.5,4.2,4,4.4,8.3c15-2.2,21.5-6,21.5-6C338.7,314.5,347.2,271.8,340.5,268.9z"/>
		<g>
			<g>
				<path id="XMLID_8_" class="st19" d="M308.1,211.8c0,0-14.5,10.9-12.6,27.6c0.9,7.7,2.6,10,5.7,12.3c3.6,2.6,15.7,1,18.9-5.1
					l1.7-4.9c0,0,3,2.7,5.9-1.3s2.3-10.2-2-7.3l2.7-7.9l-2.6-6.9L308.1,211.8z"/>
			</g>
			<g>
				<defs>
					<path id="SVGID_28_" d="M308.1,211.8c0,0-14.5,10.9-12.6,27.6c0.9,7.7,2.6,10,5.7,12.3c3.6,2.6,15.7,1,18.9-5.1l1.7-4.9
						c0,0,3,2.7,5.9-1.3s2.3-10.2-2-7.3l2.7-7.9l-2.6-6.9L308.1,211.8z"/>
				</defs>
				<clipPath id="SVGID_29_">
					<use xlink:href="#SVGID_28_"  style="overflow:visible;"/>
				</clipPath>
				<path class="st23" d="M297.7,220.8c0,0,5.5,2.2,10.4-7.3c0,0,1.3,15.5,11.5,15.2l-3-2.6c0,0,1.2,10.9,8,6.9s-14-24.7-14-24.7
					l-13.9,4.9L297.7,220.8"/>
			</g>
		</g>
		<path class="st14" d="M328.3,219.1l-10.6-5.3l-14.8-3.6c0,0-18.1,6.3-9.9,9.9c7.2,3.2,13.5-4,14.9-5.9c-0.1,2.2,0.1,5.8,2.1,8.8
			c1.8,2.6,4.6,4.3,8.4,5.2c-0.2,5.1,6,6,6,6l2.6-2l5.3-1.6L328.3,219.1z M310.2,222.8c-1.2-1.8-1.8-3.8-2-5.5
			c1.6,6.1,10.1,10.4,10.1,10.4c0,0.1,0,0.1,0,0.2C314.7,227,312,225.3,310.2,222.8z"/>
		<path class="st24" d="M318.4,208.3c0,0,4-1.8,7.9,6.1c0,0,4.9,11.5,0,22.1h-1C325.3,236.6,327.3,217.1,318.4,208.3z"/>
		<circle class="st25" cx="326.3" cy="237.6" r="4.6"/>
		<path class="st24" d="M309.8,233.8c-0.3,1.1-0.8,1.8-1.1,1.8c-0.4-0.1-0.4-1-0.2-2.1c0.3-1.1,0.8-1.8,1.1-1.8
			C310,231.8,310,232.7,309.8,233.8z"/>
		<path class="st24" d="M300.9,232c-0.1,1.1-0.5,1.9-0.8,1.9c-0.4,0-0.6-0.9-0.5-2s0.5-1.9,0.8-1.9C300.7,230,301,230.9,300.9,232z"
			/>
		<path class="st26" d="M299.9,245.4c0,0,6.1,1.7,10.9-3c0,0,0,5.7-7.8,6.5C302.9,248.9,301.6,248.9,299.9,245.4z"/>
		<path class="st14" d="M299,226.9c0.1-0.3,0.2-0.6,0.4-0.8c0.2-0.2,0.5-0.5,0.8-0.6s0.7-0.2,1-0.2c0.2,0,0.3,0.1,0.5,0.2
			c0.1,0.1,0.3,0.2,0.4,0.3v0.1c-0.2,0-0.3,0.1-0.5,0.1c-0.1,0-0.3,0-0.4,0s-0.3,0-0.4,0s-0.3,0-0.4,0c-0.3,0-0.5,0.2-0.7,0.3
			C299.4,226.4,299.2,226.6,299,226.9L299,226.9z"/>
		<path class="st14" d="M312.3,226.9c-0.1-0.3-0.2-0.6-0.4-0.8c-0.2-0.2-0.5-0.5-0.8-0.6s-0.7-0.2-1-0.2c-0.2,0-0.3,0.1-0.5,0.2
			c-0.1,0.1-0.3,0.2-0.4,0.3v0.1c0.2,0,0.3,0.1,0.5,0.1c0.1,0,0.3,0,0.4,0s0.3,0,0.4,0s0.3,0,0.4,0c0.3,0,0.5,0.2,0.7,0.3
			C311.9,226.4,312.1,226.6,312.3,226.9L312.3,226.9z"/>
		<path class="st27" d="M302.6,241.4c0,0-4.5-1.7-3.5-2.4c0.8-0.6,2.7-3.5,3.5-5.2c0.1-0.2,0.4-0.2,0.4,0.1
			C303.2,235.6,303.4,239.1,302.6,241.4z"/>
		<g>
			<circle class="st24" cx="326.3" cy="237.6" r="2"/>
			<g>
				<path class="st24" d="M322.1,247.1h-14.9v-0.8h14.5c0.6-1.2,3.7-7.1,4-7.8l0.6,0.3c-0.3,0.8-4,7.7-4.1,8L322.1,247.1z"/>
			</g>
			<ellipse class="st24" cx="306.5" cy="246.6" rx="2" ry="0.8"/>
		</g>
		<path class="st28" d="M369.5,339.2H142.2c-1.6,0-3-1.3-3-3l0,0c0-1.6,1.3-3,3-3h227.3c1.6,0,3,1.3,3,3l0,0
			C372.5,337.9,371.1,339.2,369.5,339.2z"/>
		<g>
			<g>
				<path id="XMLID_7_" class="st29" d="M156.9,261l1.9,56.5c0.1,3.5,3,6.3,6.5,6.3h81.3c3.7,0,6.6-3.1,6.5-6.7l-1.9-56.5
					c-0.1-3.5-3-6.3-6.5-6.3h-81.3C159.7,254.3,156.8,257.3,156.9,261z"/>
			</g>
			<g>
				<defs>
					<path id="SVGID_30_" d="M156.9,261l1.9,56.5c0.1,3.5,3,6.3,6.5,6.3h81.3c3.7,0,6.6-3.1,6.5-6.7l-1.9-56.5
						c-0.1-3.5-3-6.3-6.5-6.3h-81.3C159.7,254.3,156.8,257.3,156.9,261z"/>
				</defs>
				<clipPath id="SVGID_31_">
					<use xlink:href="#SVGID_30_"  style="overflow:visible;"/>
				</clipPath>
				<path class="st30" d="M211.1,297.9c0,0-6.3,24.4,0,31.3s-34.6-2.6-34.6-2.6s5.6-20.1,21.1-28.7s0,0,0,0l7.3,4.6L211.1,297.9"/>
			</g>
		</g>
		<path class="st29" d="M197.6,297.9h13.5c0,0-20.5,33-2.1,35.3h-28.2C180.8,333.2,175.2,320,197.6,297.9z"/>
		<path class="st26" d="M202.2,275c0-0.6,0.1-1.2,0.3-1.8c-0.1,0-0.2,0-0.3,0c-3.8,0-7,3.1-7,7c0,3.8,3.1,7,7,7
			c3.6,0,6.6-2.8,6.9-6.3c-0.3,0.1-0.7,0.1-1,0.1C204.9,280.9,202.2,278.2,202.2,275z"/>
	</g>
	<g>
		<g>
			<ellipse id="SVGID_9_" class="st6" cx="139.4" cy="165.2" rx="68.7" ry="68.7"/>
		</g>
		<g>
			<defs>
				<circle id="SVGID_32_" cx="139.4" cy="165.2" r="68.7"/>
			</defs>
			<clipPath id="SVGID_33_">
				<use xlink:href="#SVGID_32_"  style="overflow:visible;"/>
			</clipPath>
			
				<ellipse transform="matrix(0.7071 -0.7071 0.7071 0.7071 -75.9789 146.9456)" class="st31" cx="139.4" cy="165.2" rx="83.6" ry="83.6"/>
		</g>
		<g>
			<defs>
				<circle id="SVGID_34_" cx="139.4" cy="165.2" r="68.7"/>
			</defs>
			<clipPath id="SVGID_35_">
				<use xlink:href="#SVGID_34_"  style="overflow:visible;"/>
			</clipPath>
			<g class="st32">
				<path class="st33" d="M132.2,171c0,0-17.9,0-24.2,3.1c-6.3,3.1-9.4,11.2-8.1,16.6c1.3,5.4-5.8,18.8,1.8,26
					c6.8,6.4,12.2,5.6,14.6,4.8c0.3-0.1,0.5-0.2,0.7-0.3c1.8-0.9,0,23.7,0,23.7s45.2,2.7,47.9,0s3.6-59.1-2.7-65.4
					s-23.7-8.5-23.7-8.5H132.2z"/>
				<g>
					<g>
						<path id="XMLID_3_" class="st34" d="M130.6,155.1L130,171l14.7,9.7c0.6,0.4,1.3,0,1.5-0.6l2.4-12.9l-14.3-17.5L130.6,155.1z"
							/>
					</g>
					<g>
						<defs>
							<path id="SVGID_36_" d="M130.6,155.1L130,171l14.7,9.7c0.6,0.4,1.3,0,1.5-0.6l2.4-12.9l-14.3-17.5L130.6,155.1z"/>
						</defs>
						<clipPath id="SVGID_37_">
							<use xlink:href="#SVGID_36_"  style="overflow:visible;"/>
						</clipPath>
						<path class="st35" d="M129.5,165.2c0,0,2.2,1.8,4,0c0,0,10.3,17.5,19.3,14.3c9-3.1-9.4-17.5-9.4-17.5l-9.4-7l-5.4,4
							L129.5,165.2z"/>
					</g>
					<path class="st36" d="M131.5,149.3c7.2-0.4,8.1-12.1,8.1-13.4c0-1.3,11.2-4.9,13.9-3.6c2.6,1.3,3.2,9.5,3.4,10.1
						c3.9-2.4,7.4-10.9,5.6-15.9c-2.2-6.3-4.9-4-6.7-2.7s-1.8-4.9-11.2-10.3s1.3,6.3-9.9,5.4s-12.1,10.3-12.1,10.3
						c-5.8,0-9.9,4.9-5.4,9.9c4.5,4.9,0.9,5.4,0,9.9c-0.5,2.3,4.1,3.3,8.5,3.7C127,150.9,128.9,149.5,131.5,149.3z"/>
					<path class="st34" d="M143.2,156c8.2,3.6,15.9-0.6,18.6-2.4c-2-3.2-3.7-6.3-3.9-9.3c-0.1-1.4-0.3-2.8-0.6-4c0,0,0.1,0,0.1-0.1
						c-0.1-0.6-1.5-6.7-4-8c-2.7-1.3-13.9,2.2-13.9,3.6c0,1.1-0.6,8.6-4.4,11.9C136.6,151,139,154.2,143.2,156z"/>
					<path class="st36" d="M161.8,153.6c-2.7,1.8-10.4,6-18.6,2.4c-4.2-1.8-6.6-5-8-8.2c-1,0.8-2.2,1.4-3.7,1.5
						c-2.7,0.2-4.5,1.6-5.8,3.3c4.1,0.4,8.1,0.3,8.1,0.3c2.2,25.5,29.1,23.7,33.6,17C170.3,165.5,165.6,159.6,161.8,153.6z"/>
					
						<rect x="122.5" y="142.1" transform="matrix(5.546273e-02 -0.9985 0.9985 5.546273e-02 -31.4264 271.5085)" class="st37" width="10.6" height="20.6"/>
					<path class="st34" d="M116.3,165.4c0,0,0-13.9,2.2-15.7s7.6-8.5,10.3-6.7c2.7,1.8,1.3,2.7,3.1,3.6c1.8,0.9,0.9,2.2,2.2,3.1
						c1.3,0.9,3.1,4.5,2.2,4.5c-0.9,0-4,0-4,0s-6.3,11.6-9,11.2l-0.4,1.8h-6.7L116.3,165.4L116.3,165.4z"/>
					<path class="st34" d="M122.8,167c0,0,0.9,44.3-3.1,47s-14.8-0.4-12.5-9.4c2.2-9,10.3-41.6,10.3-41.6L122.8,167z"/>
					<path class="st38" d="M143.4,158.9c0,0,7.8,2.4,11.4,1.6c0.3-0.1,0.5,0.2,0.4,0.5c-0.4,1.1-1.1,3.1-1.1,3.8
						C154.2,165.7,146.1,164.3,143.4,158.9z"/>
					<path class="st39" d="M152.2,145.5c0,0,10.5,6.3,7.6,9c-2.8,2.7-5,2.3-5,2.3S151.1,147.1,152.2,145.5z"/>
					<path class="st40" d="M143.4,147.7c0-0.6,0.1-1.1,0.5-1.6c0.3-0.5,1-0.9,1.6-0.9c0.7-0.1,1.2,0.2,1.7,0.5
						c0.2,0.2,0.5,0.3,0.7,0.5s0.4,0.4,0.5,0.6c-0.3-0.1-0.5-0.2-0.8-0.3c-0.2-0.1-0.5-0.2-0.7-0.3c-0.5-0.1-0.9-0.3-1.3-0.2
						c-0.4,0-0.8,0.2-1.1,0.5C144,146.9,143.7,147.3,143.4,147.7z"/>
					<path class="st40" d="M158,143.4c-0.2-0.4-0.5-0.8-0.9-1s-1-0.3-1.5-0.1s-0.8,0.6-1.1,0.9c-0.1,0.2-0.2,0.4-0.3,0.6
						c-0.1,0.2-0.1,0.4-0.2,0.6c0.2-0.1,0.3-0.3,0.5-0.5c0.1-0.2,0.3-0.3,0.4-0.4c0.3-0.3,0.6-0.5,0.9-0.6c0.3-0.1,0.6-0.1,1,0
						C157.2,143,157.6,143.2,158,143.4z"/>
					<g>
						<path class="st36" d="M141.1,144.3c0.1-0.7,0.4-1.5,0.8-2c1.1-1.6,3-1.8,4.8-1.5c0.8,0.2,1-1.2,0.2-1.3
							c-2.2-0.4-4.4-0.1-5.9,1.7c-0.7,0.8-1.2,1.9-1.3,3C139.6,144.9,140.9,145.1,141.1,144.3L141.1,144.3z"/>
					</g>
					<g>
						<path class="st36" d="M152.6,138.7c0.5-0.3,1.1-0.6,1.7-0.7c1.6-0.2,2.8,0.8,3.6,2c0.4,0.6,1.3,0,0.9-0.6
							c-1-1.5-2.4-2.7-4.3-2.5c-0.9,0.1-1.8,0.4-2.5,0.9C151.3,138.2,152,139.1,152.6,138.7L152.6,138.7z"/>
					</g>
				</g>
			</g>
			<g class="st32">
				<g>
					<g>
						<path id="XMLID_2_" class="st41" d="M293.9,96.5h122.8c2.1,0,3.9,1.7,3.9,3.9v31c0,1.3-0.6,2.5-1.7,3.2l-19.6,13.3
							c-1,0.7-2.3-0.3-2-1.5l3.9-13H293.9c-2.1,0-3.9-1.7-3.9-3.9v-29.2C290,98.2,291.7,96.5,293.9,96.5z"/>
					</g>
					<g>
						<defs>
							<path id="SVGID_38_" d="M293.9,96.5h122.8c2.1,0,3.9,1.7,3.9,3.9v31c0,1.3-0.6,2.5-1.7,3.2l-19.6,13.3c-1,0.7-2.3-0.3-2-1.5
								l3.9-13H293.9c-2.1,0-3.9-1.7-3.9-3.9v-29.2C290,98.2,291.7,96.5,293.9,96.5z"/>
						</defs>
						<clipPath id="SVGID_39_">
							<use xlink:href="#SVGID_38_"  style="overflow:visible;"/>
						</clipPath>
						<polygon class="st42" points="394.8,137 399.2,133.4 411.9,133.4 395.6,142.5 						"/>
					</g>
				</g>
				<path class="st26" d="M304.8,106.4h102.7c0.9,0,1.6-0.7,1.6-1.6l0,0c0-0.9-0.7-1.6-1.6-1.6H304.8c-0.9,0-1.6,0.7-1.6,1.6l0,0
					C303.2,105.6,303.9,106.4,304.8,106.4z"/>
				<path class="st26" d="M304.8,114.7h102.7c0.9,0,1.6-0.7,1.6-1.6l0,0c0-0.9-0.7-1.6-1.6-1.6H304.8c-0.9,0-1.6,0.7-1.6,1.6l0,0
					C303.2,114,303.9,114.7,304.8,114.7z"/>
				<path class="st26" d="M357.3,123.1H408c0.6,0,1.2-0.5,1.2-1.2v-1c0-0.6-0.5-1.2-1.2-1.2h-50.7c-0.6,0-1.2,0.5-1.2,1.2v1
					C356.2,122.6,356.7,123.1,357.3,123.1z"/>
			</g>
			<g class="st32">
				<g>
					<path id="XMLID_14_" class="st6" d="M243.2,403h25.6c0.9,0,1.7,0.8,1.7,1.7v13.5c0,0.6-0.3,1.1-0.7,1.4l-8.5,5.8
						c-0.4,0.3-1-0.1-0.9-0.6l1.7-5.6h-18.8c-0.9,0-1.7-0.8-1.7-1.7v-12.7C241.5,403.7,242.2,403,243.2,403z"/>
				</g>
			</g>
			<g class="st32">
				<g>
					<path id="XMLID_15_" class="st6" d="M425.2,152.6h15.6c0.6,0,1,0.5,1,1v8.2c0,0.3-0.2,0.7-0.5,0.9l-5.2,3.5
						c-0.3,0.2-0.6-0.1-0.5-0.4l1-3.4h-11.5c-0.6,0-1-0.5-1-1v-7.7C424.1,153.1,424.6,152.6,425.2,152.6z"/>
				</g>
			</g>
			<g class="st32">
				<g>
					<g>
						<path id="XMLID_1_" class="st43" d="M378.7,139.7H245.1c-2.3,0-4.2,1.9-4.2,4.2v33.7c0,1.4,0.7,2.7,1.9,3.5l21.4,14.4
							c1.1,0.8,2.5-0.3,2.2-1.6l-4.3-14.1h116.7c2.3,0,4.2-1.9,4.2-4.2V144C382.9,141.6,381.1,139.7,378.7,139.7z"/>
					</g>
					<g>
						<defs>
							<path id="SVGID_40_" d="M378.7,139.7H245.1c-2.3,0-4.2,1.9-4.2,4.2v33.7c0,1.4,0.7,2.7,1.9,3.5l21.4,14.4
								c1.1,0.8,2.5-0.3,2.2-1.6l-4.3-14.1h116.7c2.3,0,4.2-1.9,4.2-4.2V144C382.9,141.6,381.1,139.7,378.7,139.7z"/>
						</defs>
						<clipPath id="SVGID_41_">
							<use xlink:href="#SVGID_40_"  style="overflow:visible;"/>
						</clipPath>
						<polygon class="st44" points="268.9,183.9 264.1,179.9 250.3,179.9 268.1,189.8 						"/>
					</g>
				</g>
				<path class="st26" d="M366.8,150.5H255.1c-1,0-1.8-0.8-1.8-1.8l0,0c0-1,0.8-1.8,1.8-1.8h111.7c1,0,1.8,0.8,1.8,1.8l0,0
					C368.6,149.7,367.8,150.5,366.8,150.5z"/>
				<path class="st26" d="M366.8,159.6H255.1c-1,0-1.8-0.8-1.8-1.8l0,0c0-1,0.8-1.8,1.8-1.8h111.7c1,0,1.8,0.8,1.8,1.8l0,0
					C368.6,158.8,367.8,159.6,366.8,159.6z"/>
				<path class="st26" d="M309.7,168.7h-55.1c-0.7,0-1.3-0.6-1.3-1.3v-1.1c0-0.7,0.6-1.3,1.3-1.3h55.1c0.7,0,1.3,0.6,1.3,1.3v1.1
					C310.9,168.1,310.4,168.7,309.7,168.7z"/>
			</g>
			<g class="st32">
				<g>
					<defs>
						<circle id="SVGID_42_" cx="377.7" cy="375.7" r="57"/>
					</defs>
					<clipPath id="SVGID_43_">
						<use xlink:href="#SVGID_42_"  style="overflow:visible;"/>
					</clipPath>
					<ellipse class="st45" cx="377.8" cy="375.7" rx="70.4" ry="70.4"/>
				</g>
				<g>
					<defs>
						<circle id="SVGID_44_" cx="377.8" cy="375.7" r="57"/>
					</defs>
					<clipPath id="SVGID_45_">
						<use xlink:href="#SVGID_44_"  style="overflow:visible;"/>
					</clipPath>
					<g class="st46">
						<g>
							<g>
								<path id="XMLID_5_" class="st34" d="M382.6,381.8c-4.3,9.9-12,18.1-17.8,10.2c-4.4-5.9-0.9-13.9,1.1-17.6
									c6.1-2,12.3-2.8,12.3-2.8h5.8c0,0,3.4,0,7.7,0.3C388.6,373.7,384.8,376.7,382.6,381.8z"/>
							</g>
							<g>
								<defs>
									<path id="SVGID_46_" d="M382.6,381.8c-4.3,9.9-12,18.1-17.8,10.2c-4.4-5.9-0.9-13.9,1.1-17.6c6.1-2,12.3-2.8,12.3-2.8h5.8
										c0,0,3.4,0,7.7,0.3C388.6,373.7,384.8,376.7,382.6,381.8z"/>
								</defs>
								<clipPath id="SVGID_47_">
									<use xlink:href="#SVGID_46_"  style="overflow:visible;"/>
								</clipPath>
								<path class="st47" d="M371.2,371.7c0,0.5-0.3,8.4-0.3,8.4l-4.8-8.1L371.2,371.7z"/>
							</g>
							<path class="st48" d="M356.2,379.5c2.2-2.2,5.9-3.9,9.7-5.1c-2,3.7-5.4,11.7-1.1,17.6c5.8,7.9,13.5-0.3,17.8-10.2
								c2.2-5.2,6-8.2,9.1-9.9c5.1,0.3,11.5,1,14.6,2.6c5.8,2.9,8.7,10.4,7.5,15.3c-1.2,5,5.4,17.4-1.7,24c-6.3,6-11.3,5.2-13.5,4.4
								c-0.2-0.1-0.5-0.2-0.6-0.3c-1.7-0.8,0,22,0,22s-41.9,2.5-44.3,0S350.4,385.4,356.2,379.5z"/>
							<g id="OBJECTS">
								<g>
									<path id="XMLID_13_" class="st49" d="M381.6,329.5c0,0-4.1-5.8-14-1.3c-9.9,4.6-22.4,27-6.9,46.8c0,0,3.3-4.8,15.3-6.1
										C387.9,367.6,381.6,329.5,381.6,329.5z"/>
								</g>
								<g>
									<defs>
										<path id="SVGID_48_" d="M381.6,329.5c0,0-4.1-5.8-14-1.3c-9.9,4.6-22.4,27-6.9,46.8c0,0,3.3-4.8,15.3-6.1
											C387.9,367.6,381.6,329.5,381.6,329.5z"/>
									</defs>
									<defs>
										<path id="SVGID_49_" d="M381.6,329.5c0,0-4.1-5.8-14-1.3c-9.9,4.6-22.4,27-6.9,46.8c0,0,3.3-4.8,15.3-6.1
											C387.9,367.6,381.6,329.5,381.6,329.5z"/>
									</defs>
									<clipPath id="SVGID_50_">
										<use xlink:href="#SVGID_48_"  style="overflow:visible;"/>
									</clipPath>
									<clipPath id="SVGID_51_" class="st50">
										<use xlink:href="#SVGID_49_"  style="overflow:visible;"/>
									</clipPath>
									<polygon class="st51" points="383.6,327.4 372.7,331.7 380.3,326.4 									"/>
									<path class="st51" d="M359.4,346.4c0,0-10.1,25.6,7.7,26.1C384.9,372.9,359.4,346.4,359.4,346.4"/>
								</g>
								<g>
									<g>
										<path id="XMLID_4_" class="st34" d="M385.2,357l0.6,14.7l-13.6,9c-0.5,0.3-1.2,0-1.4-0.6l-2.2-12l13.3-16.2L385.2,357z"/>
									</g>
									<g>
										<defs>
											<path id="SVGID_52_" d="M385.2,357l0.6,14.7l-13.6,9c-0.5,0.3-1.2,0-1.4-0.6l-2.2-12l13.3-16.2L385.2,357z"/>
										</defs>
										<clipPath id="SVGID_53_">
											<use xlink:href="#SVGID_52_"  style="overflow:visible;"/>
										</clipPath>
										<path class="st52" d="M386.2,366.3c0,0-2.5-2.1-4.1-3.8c0,0-4.3,12.5-17.3,10.9c-8.7-1,8.6-10.1,8.6-10.1l8.7-6.6l5,3.7
											L386.2,366.3z"/>
									</g>
									<g>
										<g>
											<path id="XMLID_6_" class="st34" d="M357.4,355.9c0.3-4.5,2.9-12.9,2.9-12.7c0.1-0.5,1.4-6.2,3.7-7.4
												c2.5-1.2,12.8,2.1,12.8,3.3c0,1,0.5,8,4.1,11c0.9,0.8,2,1.3,3.4,1.4c2.5,0.2,4.2,1.5,5.4,3.1c-3.8,0.4-7.5,0.3-7.5,0.3
												c-3.2,18.3-15.2,16.3-18.7,15.8C360,370.1,356.9,363.1,357.4,355.9z"/>
										</g>
										<g>
											<defs>
												<path id="SVGID_54_" d="M357.4,355.9c0.3-4.5,2.9-12.9,2.9-12.7c0.1-0.5,1.4-6.2,3.7-7.4c2.5-1.2,12.8,2.1,12.8,3.3
													c0,1,0.5,8,4.1,11c0.9,0.8,2,1.3,3.4,1.4c2.5,0.2,4.2,1.5,5.4,3.1c-3.8,0.4-7.5,0.3-7.5,0.3
													c-3.2,18.3-15.2,16.3-18.7,15.8C360,370.1,356.9,363.1,357.4,355.9z"/>
											</defs>
											<clipPath id="SVGID_55_">
												<use xlink:href="#SVGID_54_"  style="overflow:visible;"/>
											</clipPath>
											<path class="st53" d="M368.6,334.5c0.8,0,0.9,16.1,15.8,18.7s-5.4-15.4-5.4-15.4L368.6,334.5z"/>
										</g>
										<path class="st38" d="M373.1,362.6c0,0-6.3,1.9-9.2,1.3c-0.2-0.1-0.4,0.2-0.3,0.4c0.3,0.9,0.9,2.5,0.9,3.1
											C364.4,368,370.9,366.9,373.1,362.6z"/>
										<path class="st40" d="M373.1,353.6c0-0.4-0.1-0.9-0.4-1.3s-0.8-0.7-1.3-0.7s-1,0.2-1.4,0.4c-0.2,0.1-0.4,0.3-0.5,0.4
											c-0.2,0.2-0.3,0.3-0.4,0.5c0.2-0.1,0.4-0.1,0.6-0.2s0.4-0.1,0.6-0.2c0.4-0.1,0.7-0.2,1.1-0.2c0.3,0,0.6,0.1,0.9,0.4
											C372.6,352.9,372.8,353.2,373.1,353.6z"/>
										<path class="st40" d="M361.3,350.1c0.1-0.3,0.4-0.6,0.7-0.8c0.3-0.2,0.8-0.2,1.2-0.1c0.4,0.1,0.7,0.5,0.9,0.8
											c0.1,0.2,0.2,0.3,0.2,0.5c0.1,0.2,0.1,0.3,0.1,0.5c-0.1-0.1-0.3-0.2-0.4-0.4c-0.1-0.1-0.2-0.2-0.4-0.3
											c-0.2-0.2-0.5-0.4-0.7-0.5s-0.5-0.1-0.8,0C361.9,349.7,361.7,349.9,361.3,350.1z"/>
										<path class="st49" d="M368.6,335.6c0,0,4.3,15,16.7,16.3c12.3,1.3-10-18.3-10-18.3h-12.5L359,343
											C358.9,342.9,366.3,340.6,368.6,335.6z"/>
										<path class="st49" d="M368.6,333.5c0.3,0,12.2-6.6,17.3-5.1c5.1,1.5,16.5,17.5,15,33.6c-1.5,16-23.1,13.7-23.1,13.7
											s11.2-14.5,1-31l-7.6-7.1L368.6,333.5z"/>
										
											<rect x="378.8" y="351.3" transform="matrix(0.5767 -0.817 0.817 0.5767 -126.5982 468.0669)" class="st37" width="19.1" height="9.8"/>
										<path class="st34" d="M397.9,366.2c0,0,0-11.1-1.8-12.6c-1.8-1.4-6.1-6.8-8.3-5.4s-1.1,2.2-2.5,2.9
											c-1.4,0.7-0.7,1.8-1.8,2.5c-1.1,0.7-2.5,3.6-1.8,3.6s3.2,0,3.2,0s5,9.3,7.2,9l0.4,1.4h5.4L397.9,366.2L397.9,366.2z"/>
										<path class="st34" d="M391.8,364c0,0-0.2,44.9,3.6,47.4c3.7,2.5,13.7-0.4,11.6-8.7c-2.1-8.3-9.5-38.5-9.5-38.5L391.8,364z
											"/>
										<path class="st54" d="M365.8,359.5l-2.3-1.3c0,0,1.7-2.2,2.4-3.7c0.1-0.2,0.4-0.1,0.4,0.1
											C366.4,355.9,366.3,357.9,365.8,359.5z"/>
										<g>
											<path class="st49" d="M374.7,351.3c-0.5-1.7-2-3.1-3.7-3.6c-0.2-0.1-0.1-0.4,0.1-0.4c1.9,0.5,3.4,2,4,3.9
												C375.1,351.5,374.7,351.6,374.7,351.3L374.7,351.3z"/>
										</g>
										<g>
											<path class="st49" d="M365.1,345.7c-1.5-0.2-3.1,0.5-4.1,1.7c-0.1,0.2-0.4,0-0.3-0.2c1-1.3,2.8-2,4.4-1.8
												C365.4,345.4,365.3,345.7,365.1,345.7L365.1,345.7z"/>
										</g>
										<path class="st49" d="M368,333.5v0.5c0,0.2,0,0.4,0,0.6c0,0.4,0,0.8,0.1,1.2c0.1,0.8,0.2,1.5,0.4,2.3
											c0.3,1.5,0.9,3,1.6,4.4s1.6,2.6,2.6,3.8c1,1.1,2.2,2.1,3.4,3c-1.2-1-2.2-2-3.2-3.2c-0.9-1.2-1.7-2.5-2.3-3.9
											c-0.6-1.4-1-2.8-1.2-4.3c-0.1-0.7-0.2-1.5-0.2-2.2c0-0.4,0-0.7,0-1.1c0-0.2,0-0.4,0-0.5v-0.6L368,333.5L368,333.5z"/>
									</g>
								</g>
							</g>
							<g id="DESIGNED_BY_FREEPIK">
							</g>
						</g>
					</g>
				</g>
			</g>
		</g>
	</g>
</g>
</svg>
