<svg height="512" viewBox="0 0 512 512" width="512" xmlns="http://www.w3.org/2000/svg"><g><g><path d="m496 368v28a19.994 19.994 0 0 1 -20 20h-440a19.994 19.994 0 0 1 -20-20v-28z" fill="#d8d7da"/><path d="m144 472h224v24h-224z" fill="#d8d7da"/><path d="m328 472h-144l16-56h112z" fill="#acabb1"/><path d="m496 92v276h-480v-276a19.994 19.994 0 0 1 20-20h440a19.994 19.994 0 0 1 20 20z" fill="#78b9eb"/></g><g><path d="m112 104h288v232h-288z" fill="#ff9811"/><g fill="#d8d7da"><circle cx="184" cy="176" r="16"/><circle cx="328" cy="176" r="16"/></g></g><path d="m476 64h-143.68a80.007 80.007 0 0 0 -152.64 0h-143.68a28.031 28.031 0 0 0 -28 28v304a28.031 28.031 0 0 0 28 28h153.39l-11.42 40h-33.97a8 8 0 0 0 -8 8v24a8 8 0 0 0 8 8h224a8 8 0 0 0 8-8v-24a8 8 0 0 0 -8-8h-33.97l-11.42-40h153.39a28.031 28.031 0 0 0 28-28v-304a28.031 28.031 0 0 0 -28-28zm-148 104a8 8 0 1 1 -8 8 8.011 8.011 0 0 1 8-8zm-72-144a64.083 64.083 0 0 1 59.31 40h-118.62a64.083 64.083 0 0 1 59.31-40zm-64 64a63.984 63.984 0 0 1 .52-8h126.96a63.984 63.984 0 0 1 .52 8v8h-128zm0 24h128v41.38a24 24 0 1 0 16 0v-41.38h56v216h-272v-216h56v41.38a24 24 0 1 0 16 0zm-8 56a8 8 0 1 1 -8 8 8.011 8.011 0 0 1 8-8zm176 312v8h-208v-8zm-165.39-16 11.42-40h99.94l11.42 40zm293.39-68a12.01 12.01 0 0 1 -12 12h-440a12.01 12.01 0 0 1 -12-12v-20h464zm0-36h-464v-268a12.01 12.01 0 0 1 12-12h140.4c-.26 2.63-.4 5.3-.4 8v8h-64a8 8 0 0 0 -8 8v232a8 8 0 0 0 8 8h288a8 8 0 0 0 8-8v-232a8 8 0 0 0 -8-8h-64v-8c0-2.7-.14-5.37-.4-8h140.4a12.01 12.01 0 0 1 12 12z"/></g></svg>